<svg width="100" height="100" viewBox="0 0 100 100" fill="none" xmlns="http://www.w3.org/2000/svg">
<g clip-path="url(#clip0_12_2)">
<path d="M86.3804 18.7159C84.2522 16.5868 81.7254 14.8978 78.9444 13.7455C76.1633 12.5931 73.1824 12 70.1721 12C67.1617 12 64.1808 12.5931 61.3997 13.7455C58.6187 14.8978 56.0919 16.5868 53.9637 18.7159L49.547 23.1326L45.1304 18.7159C40.8317 14.4172 35.0014 12.0022 28.922 12.0022C22.8427 12.0022 17.0124 14.4172 12.7137 18.7159C8.41499 23.0147 6 28.845 6 34.9243C6 41.0036 8.41499 46.8339 12.7137 51.1326L17.1304 55.5493L49.547 87.9659L81.9637 55.5493L86.3804 51.1326C88.5095 49.0045 90.1985 46.4777 91.3509 43.6966C92.5032 40.9155 93.0963 37.9346 93.0963 34.9243C93.0963 31.9139 92.5032 28.933 91.3509 26.152C90.1985 23.3709 88.5095 20.8441 86.3804 18.7159V18.7159Z" fill="#dfe4d2"/>
</g>
<defs>
<clipPath id="clip0_12_2">
<rect width="100" height="100" fill="white"/>
</clipPath>
</defs>
</svg>
